<?xml version="1.0" standalone="no"?>
<!DOCTYPE svg PUBLIC "-//W3C//DTD SVG 20010904//EN"
 "http://www.w3.org/TR/2001/REC-SVG-20010904/DTD/svg10.dtd">
<svg version="1.0" xmlns="http://www.w3.org/2000/svg"
 width="512.000000pt" height="512.000000pt" viewBox="0 0 512.000000 512.000000"
 preserveAspectRatio="xMidYMid meet">

<g transform="translate(0.000000,512.000000) scale(0.100000,-0.100000)"
fill="white" stroke="none">
<path d="M252 4665 c-36 -30 -47 -70 -32 -111 6 -16 118 -136 248 -266 l237
-238 -212 0 -211 0 -30 -25 c-38 -32 -48 -72 -28 -118 27 -66 35 -67 418 -67
322 0 345 1 375 20 21 13 35 31 42 57 17 61 14 665 -3 707 -30 71 -110 89
-168 37 l-33 -29 -3 -213 -3 -212 -243 241 c-238 238 -243 242 -283 242 -30 0
-50 -7 -71 -25z"/>
<path d="M2290 4259 c-633 -55 -1194 -446 -1470 -1023 -306 -637 -216 -1385
231 -1931 95 -116 141 -156 187 -162 37 -5 44 -2 94 43 107 97 261 250 289
288 61 83 21 176 -76 176 -46 0 -48 -1 -173 -124 l-127 -124 -41 52 c-185 229
-314 543 -340 825 l-7 71 176 0 177 0 32 29 c28 25 33 36 33 75 0 36 -6 51
-28 73 l-27 28 -182 3 -181 3 7 72 c9 98 47 263 86 369 57 158 172 359 263
463 l36 40 498 -498 498 -497 0 -63 c0 -53 5 -71 28 -105 106 -161 344 -119
386 68 30 137 -99 279 -232 255 -31 -6 -47 10 -530 493 l-499 499 49 40 c218
183 539 316 841 348 l62 7 0 -182 0 -182 29 -29 c41 -41 98 -41 143 0 l33 29
3 182 3 182 57 -7 c183 -21 372 -75 528 -150 86 -41 260 -153 329 -210 l30
-25 -116 -117 c-64 -65 -122 -128 -128 -140 -36 -71 34 -164 113 -149 23 4 63
38 151 126 66 66 125 120 130 120 13 0 93 -104 155 -200 119 -185 207 -441
235 -682 l6 -58 -171 0 c-106 0 -180 -4 -193 -11 -38 -19 -57 -51 -57 -97 0
-35 6 -49 29 -73 l29 -29 182 0 181 0 -6 -57 c-36 -311 -152 -597 -338 -831
l-50 -63 -127 125 c-125 124 -127 126 -172 126 -73 0 -120 -59 -103 -127 9
-38 340 -369 378 -378 15 -4 39 -4 55 0 56 13 239 235 340 411 250 438 304
983 146 1464 -203 615 -728 1081 -1359 1209 -182 37 -342 46 -525 30z"/>
</g>
</svg>
